<svg width="95" height="95" viewBox="0 0 95 95" fill="none" xmlns="http://www.w3.org/2000/svg">
<path fill-rule="evenodd" clip-rule="evenodd" d="M47.5 0C21.2562 0 0 21.2562 0 47.5C0 68.5187 13.5969 86.2719 32.4781 92.5656C34.8531 92.9813 35.7437 91.5563 35.7437 90.3094C35.7437 89.1813 35.6844 85.4406 35.6844 81.4625C23.75 83.6594 20.6625 78.5531 19.7125 75.8812C19.1781 74.5156 16.8625 70.3 14.8438 69.1719C13.1812 68.2812 10.8062 66.0844 14.7844 66.025C18.525 65.9656 21.1969 69.4687 22.0875 70.8937C26.3625 78.0781 33.1906 76.0594 35.9219 74.8125C36.3375 71.725 37.5844 69.6469 38.95 68.4594C28.3812 67.2719 17.3375 63.175 17.3375 45.0062C17.3375 39.8406 19.1781 35.5656 22.2063 32.2406C21.7313 31.0531 20.0687 26.1844 22.6812 19.6531C22.6812 19.6531 26.6594 18.4063 35.7437 24.5219C39.5437 23.4531 43.5813 22.9187 47.6188 22.9187C51.6563 22.9187 55.6938 23.4531 59.4938 24.5219C68.5781 18.3469 72.5563 19.6531 72.5563 19.6531C75.1688 26.1844 73.5063 31.0531 73.0313 32.2406C76.0594 35.5656 77.9 39.7812 77.9 45.0062C77.9 63.2344 66.7969 67.2719 56.2281 68.4594C57.95 69.9437 59.4344 72.7938 59.4344 77.2469C59.4344 83.6 59.375 88.7063 59.375 90.3094C59.375 91.5563 60.2656 93.0406 62.6406 92.5656C81.4031 86.2719 95 68.4594 95 47.5C95 21.2562 73.7438 0 47.5 0Z" fill="white"/>
</svg>
