<svg width="345" height="345" viewBox="0 0 345 345" fill="none" xmlns="http://www.w3.org/2000/svg">
<circle cx="172.5" cy="172.5" r="170" fill="white" fill-opacity="0.05" stroke="#D1D1D1" stroke-width="5"/>
<mask id="path-2-outside-1_43_18" maskUnits="userSpaceOnUse" x="68" y="120" width="199" height="104" fill="black">
<rect fill="white" x="68" y="120" width="199" height="104"/>
<path d="M87.0909 219H75.2727L109.455 125.909H121.091L155.273 219H143.455L115.636 140.636H114.909L87.0909 219ZM91.4545 182.636H139.091V192.636H91.4545V182.636ZM169.773 125.909H183.227L214.864 203.182H215.955L247.591 125.909H261.045V219H250.5V148.273H249.591L220.5 219H210.318L181.227 148.273H180.318V219H169.773V125.909Z"/>
</mask>
<path d="M87.0909 219H75.2727L109.455 125.909H121.091L155.273 219H143.455L115.636 140.636H114.909L87.0909 219ZM91.4545 182.636H139.091V192.636H91.4545V182.636ZM169.773 125.909H183.227L214.864 203.182H215.955L247.591 125.909H261.045V219H250.5V148.273H249.591L220.5 219H210.318L181.227 148.273H180.318V219H169.773V125.909Z" fill="white" fill-opacity="0.05"/>
<path d="M87.0909 219V224H90.6217L91.8028 220.673L87.0909 219ZM75.2727 219L70.5791 217.277L68.1104 224H75.2727V219ZM109.455 125.909V120.909H105.964L104.761 124.186L109.455 125.909ZM121.091 125.909L125.785 124.186L124.581 120.909H121.091V125.909ZM155.273 219V224H162.435L159.966 217.277L155.273 219ZM143.455 219L138.743 220.673L139.924 224H143.455V219ZM115.636 140.636L120.348 138.964L119.167 135.636H115.636V140.636ZM114.909 140.636V135.636H111.378L110.197 138.964L114.909 140.636ZM91.4545 182.636V177.636H86.4545V182.636H91.4545ZM139.091 182.636H144.091V177.636H139.091V182.636ZM139.091 192.636V197.636H144.091V192.636H139.091ZM91.4545 192.636H86.4545V197.636H91.4545V192.636ZM87.0909 219V214H75.2727V219V224H87.0909V219ZM75.2727 219L79.9663 220.723L114.148 127.633L109.455 125.909L104.761 124.186L70.5791 217.277L75.2727 219ZM109.455 125.909V130.909H121.091V125.909V120.909H109.455V125.909ZM121.091 125.909L116.397 127.633L150.579 220.723L155.273 219L159.966 217.277L125.785 124.186L121.091 125.909ZM155.273 219V214H143.455V219V224H155.273V219ZM143.455 219L148.166 217.327L120.348 138.964L115.636 140.636L110.924 142.309L138.743 220.673L143.455 219ZM115.636 140.636V135.636H114.909V140.636V145.636H115.636V140.636ZM114.909 140.636L110.197 138.964L82.379 217.327L87.0909 219L91.8028 220.673L119.621 142.309L114.909 140.636ZM91.4545 182.636V187.636H139.091V182.636V177.636H91.4545V182.636ZM139.091 182.636H134.091V192.636H139.091H144.091V182.636H139.091ZM139.091 192.636V187.636H91.4545V192.636V197.636H139.091V192.636ZM91.4545 192.636H96.4545V182.636H91.4545H86.4545V192.636H91.4545ZM169.773 125.909V120.909H164.773V125.909H169.773ZM183.227 125.909L187.854 124.015L186.583 120.909H183.227V125.909ZM214.864 203.182L210.236 205.076L211.508 208.182H214.864V203.182ZM215.955 203.182V208.182H219.31L220.582 205.076L215.955 203.182ZM247.591 125.909V120.909H244.235L242.964 124.015L247.591 125.909ZM261.045 125.909H266.045V120.909H261.045V125.909ZM261.045 219V224H266.045V219H261.045ZM250.5 219H245.5V224H250.5V219ZM250.5 148.273H255.5V143.273H250.5V148.273ZM249.591 148.273V143.273H246.241L244.967 146.371L249.591 148.273ZM220.5 219V224H223.85L225.124 220.902L220.5 219ZM210.318 219L205.694 220.902L206.968 224H210.318V219ZM181.227 148.273L185.851 146.371L184.577 143.273H181.227V148.273ZM180.318 148.273V143.273H175.318V148.273H180.318ZM180.318 219V224H185.318V219H180.318ZM169.773 219H164.773V224H169.773V219ZM169.773 125.909V130.909H183.227V125.909V120.909H169.773V125.909ZM183.227 125.909L178.6 127.804L210.236 205.076L214.864 203.182L219.491 201.287L187.854 124.015L183.227 125.909ZM214.864 203.182V208.182H215.955V203.182V198.182H214.864V203.182ZM215.955 203.182L220.582 205.076L252.218 127.804L247.591 125.909L242.964 124.015L211.327 201.287L215.955 203.182ZM247.591 125.909V130.909H261.045V125.909V120.909H247.591V125.909ZM261.045 125.909H256.045V219H261.045H266.045V125.909H261.045ZM261.045 219V214H250.5V219V224H261.045V219ZM250.5 219H255.5V148.273H250.5H245.5V219H250.5ZM250.5 148.273V143.273H249.591V148.273V153.273H250.5V148.273ZM249.591 148.273L244.967 146.371L215.876 217.098L220.5 219L225.124 220.902L254.215 150.175L249.591 148.273ZM220.5 219V214H210.318V219V224H220.5V219ZM210.318 219L214.942 217.098L185.851 146.371L181.227 148.273L176.603 150.175L205.694 220.902L210.318 219ZM181.227 148.273V143.273H180.318V148.273V153.273H181.227V148.273ZM180.318 148.273H175.318V219H180.318H185.318V148.273H180.318ZM180.318 219V214H169.773V219V224H180.318V219ZM169.773 219H174.773V125.909H169.773H164.773V219H169.773Z" fill="#D1D1D1" mask="url(#path-2-outside-1_43_18)"/>
</svg>
